<svg xmlns="http://www.w3.org/2000/svg" xmlns:xlink="http://www.w3.org/1999/xlink" xmlns:svgjs="http://svgjs.com/svgjs" width="288" height="288" version="1.1" style=""><rect id="backgroundrect" width="100%" height="100%" x="0" y="0" fill="none" stroke="none" data-darkreader-inline-stroke="" style="--darkreader-inline-stroke:none;"/><defs id="SvgjsDefs1002"><linearGradient id="svg_7" spreadMethod="pad" y2="1.0" x2="0.0"><stop stop-color="#4a90d6" stop-opacity="1" offset="0" data-darkreader-inline-stopcolor="" style="--darkreader-inline-stopcolor:#225c96;"/><stop stop-color="#b56f29" stop-opacity="1" offset="1" data-darkreader-inline-stopcolor="" style="--darkreader-inline-stopcolor:#915921;"/></linearGradient><linearGradient id="svg_8"><stop stop-color="#d50bd5" stop-opacity="1" offset="0" data-darkreader-inline-stopcolor="" style="--darkreader-inline-stopcolor:#aa09aa;"/><stop stop-color="#2af42a" stop-opacity="1" offset="1" data-darkreader-inline-stopcolor="" style="--darkreader-inline-stopcolor:#33b009;"/></linearGradient><linearGradient id="svg_9" x1="0.48046875" y1="0" x2="0.4765625" y2="1" spreadMethod="pad"><stop stop-color="#d50bd5" stop-opacity="1" offset="0" data-darkreader-inline-stopcolor="" style="--darkreader-inline-stopcolor:#aa09aa;"/><stop stop-color="#2af42a" stop-opacity="1" offset="1" data-darkreader-inline-stopcolor="" style="--darkreader-inline-stopcolor:#33b009;"/></linearGradient><linearGradient id="svg_10" spreadMethod="pad"><stop stop-color="#e841e8" stop-opacity="1" offset="0" data-darkreader-inline-stopcolor="" style="--darkreader-inline-stopcolor:#9f139f;"/><stop stop-color="#17be17" stop-opacity="1" offset="1" data-darkreader-inline-stopcolor="" style="--darkreader-inline-stopcolor:#129812;"/></linearGradient><linearGradient id="svg_11" x2="0.5234375" y2="1" x1="0.5078125" y1="0"><stop stop-color="#990000" stop-opacity="1" offset="0" data-darkreader-inline-stopcolor="" style="--darkreader-inline-stopcolor:#7a0000;"/><stop stop-color="#66ffff" stop-opacity="1" offset="1" data-darkreader-inline-stopcolor="" style="--darkreader-inline-stopcolor:#008f8f;"/></linearGradient><linearGradient id="svg_12" x1="0.50390625" y1="0" x2="0.49609375" y2="1"><stop stop-color="#e767e7" stop-opacity="1" offset="0" data-darkreader-inline-stopcolor="" style="--darkreader-inline-stopcolor:#871587;"/><stop stop-color="#189818" stop-opacity="1" offset="1" data-darkreader-inline-stopcolor="" style="--darkreader-inline-stopcolor:#137a13;"/></linearGradient><linearGradient id="svg_13" x1="0.5" y1="1" x2="0.49609375" y2="0.44140625"><stop stop-color="#00ffbf" stop-opacity="1" offset="0" data-darkreader-inline-stopcolor="" style="--darkreader-inline-stopcolor:#00cca6;"/><stop stop-color="#ff0040" stop-opacity="1" offset="1" data-darkreader-inline-stopcolor="" style="--darkreader-inline-stopcolor:#cc0033;"/></linearGradient><linearGradient id="svg_14" x1="0.5" y1="1" x2="0.49609375" y2="0"><stop stop-color="#00ffbf" stop-opacity="1" offset="0" data-darkreader-inline-stopcolor="" style="--darkreader-inline-stopcolor:#00cca6;"/><stop stop-color="#ff0040" stop-opacity="1" offset="1" data-darkreader-inline-stopcolor="" style="--darkreader-inline-stopcolor:#cc0033;"/></linearGradient><linearGradient id="svg_15" x1="0.5" y1="1" x2="0.4921875" y2="0.21484375"><stop stop-color="#00ffbf" stop-opacity="1" offset="0" data-darkreader-inline-stopcolor="" style="--darkreader-inline-stopcolor:#00cca6;"/><stop stop-color="#ff0040" stop-opacity="1" offset="1" data-darkreader-inline-stopcolor="" style="--darkreader-inline-stopcolor:#cc0033;"/></linearGradient></defs><g class="currentLayer" style=""><title>Layer 1</title><path id="SvgjsPath1021" d="M 144,0 C 5,0 0,5 0,144 0,283 5,288 144,288 283,288 288,283 288,144 288,5 283,0 144,0 Z" fill="url(#svg_15)" style="--darkreader-inline-fill:#00cca6; --darkreader-inline-stroke:none;" class="selected" stroke="none" data-darkreader-inline-stroke="" fill-opacity="1"/><g id="SvgjsG1008" class="" fill="none" style="--darkreader-inline-fill:#939303;"><svg xmlns="http://www.w3.org/2000/svg" class="ionicon" viewBox="0 0 512 512" width="288" height="288" id="svg_4"><path fill="none" stroke="#ffffff" stroke-linecap="round" stroke-linejoin="round" stroke-width="32" d="M434.8 137.65l-149.36-68.1c-16.19-7.4-42.69-7.4-58.88 0L77.3 137.65c-17.6 8-17.6 21.09 0 29.09l148 67.5c16.89 7.7 44.69 7.7 61.58 0l148-67.5c17.52-8 17.52-21.1-.08-29.09zM160 308.52l-82.7 37.11c-17.6 8-17.6 21.1 0 29.1l148 67.5c16.89 7.69 44.69 7.69 61.58 0l148-67.5c17.6-8 17.6-21.1 0-29.1l-79.94-38.47" class="colorStrokecurrentColor svgStroke" data-darkreader-inline-stroke="" style="--darkreader-inline-stroke:#e8e6e3; --darkreader-inline-fill:#939303;" id="svg_6" fill-opacity="1"/><path fill="none" stroke="#ffffff" stroke-linecap="round" stroke-linejoin="round" stroke-width="32" d="M160 204.48l-82.8 37.16c-17.6 8-17.6 21.1 0 29.1l148 67.49c16.89 7.7 44.69 7.7 61.58 0l148-67.49c17.7-8 17.7-21.1.1-29.1L352 204.48" class="colorStrokecurrentColor svgStroke" data-darkreader-inline-stroke="" style="--darkreader-inline-stroke:#e8e6e3; --darkreader-inline-fill:#939303;" id="svg_5" fill-opacity="1"/></svg></g></g></svg>