<?xml version="1.0" encoding="utf-8"?>
<svg width="2000" height="2000" viewBox="0 0 1000 1000" xmlns="http://www.w3.org/2000/svg">
  <defs>
    <filter id="grain" x="-50vw" y="-50vh" width="100vw" height="100vh">
      <feFlood flood-color="#ffffff" result="neutral-gray"/>
      <feTurbulence in="neutral-gray" type="fractalNoise" baseFrequency="2.5" numOctaves="100" stitchTiles="stitch" result="noise"/>
      <feColorMatrix in="noise" type="saturate" values="0" result="destaturatedNoise"/>
      <feComponentTransfer in="desaturatedNoise" result="theNoise">
        <feFuncA type="table" tableValues="0 0 0.5 0"/>
      </feComponentTransfer>
      <feBlend in="SourceGraphic" in2="theNoise" mode="soft-light" result="noisy-image"/>
    </filter>
    <linearGradient id="linearGradientId" gradientTransform="rotate(-45 0.5 0.5)">
      <stop offset="0" stop-color="#FAACA8"/>
      <stop offset="1" stop-color="#DDD6F3"/>
    </linearGradient>
    <clipPath id="shape">
      <path fill="currentColor" d="M790.5,672Q698,844,500,843.5Q302,843,153,671.5Q4,500,149.5,322Q295,144,511,125.5Q727,107,805,303.5Q883,500,790.5,672Z"/>
    </clipPath>
  </defs>
  <g filter="url(#grain)" clip-path="url(#shape)">
    <path fill="url(#linearGradientId)" d="M790.5,672Q698,844,500,843.5Q302,843,153,671.5Q4,500,149.5,322Q295,144,511,125.5Q727,107,805,303.5Q883,500,790.5,672Z"/>
  </g>
  <g id="SvgjsG1008" style="" transform="matrix(1, 0, 0, 1, 1461.678711, 381.386841)">
    <svg xmlns="http://www.w3.org/2000/svg" class="ionicon" viewBox="0 0 512 512" width="288" height="288">
      <path fill="none" stroke="currentColor" stroke-linecap="round" stroke-linejoin="round" stroke-width="32" d="M434.8 137.65l-149.36-68.1c-16.19-7.4-42.69-7.4-58.88 0L77.3 137.65c-17.6 8-17.6 21.09 0 29.09l148 67.5c16.89 7.7 44.69 7.7 61.58 0l148-67.5c17.52-8 17.52-21.1-.08-29.09zM160 308.52l-82.7 37.11c-17.6 8-17.6 21.1 0 29.1l148 67.5c16.89 7.69 44.69 7.69 61.58 0l148-67.5c17.6-8 17.6-21.1 0-29.1l-79.94-38.47" class="colorStrokecurrentColor svgStroke" data-darkreader-inline-stroke="" style="--darkreader-inline-stroke:currentColor;"/>
      <path fill="none" stroke="currentColor" stroke-linecap="round" stroke-linejoin="round" stroke-width="32" d="M160 204.48l-82.8 37.16c-17.6 8-17.6 21.1 0 29.1l148 67.49c16.89 7.7 44.69 7.7 61.58 0l148-67.49c17.7-8 17.7-21.1.1-29.1L352 204.48" class="colorStrokecurrentColor svgStroke" data-darkreader-inline-stroke="" style="--darkreader-inline-stroke:currentColor;"/>
    </svg>
  </g>
  <g id="g-1" transform="matrix(2.190952, 0, 0, 2.301035, 157.993683, 150.404266)" style="">
    <svg xmlns="http://www.w3.org/2000/svg" class="ionicon" viewBox="0 0 512 512" width="288" height="288">
      <path fill="none" stroke="#ffffff" stroke-linecap="round" stroke-linejoin="round" stroke-width="32" d="M434.8 137.65l-149.36-68.1c-16.19-7.4-42.69-7.4-58.88 0L77.3 137.65c-17.6 8-17.6 21.09 0 29.09l148 67.5c16.89 7.7 44.69 7.7 61.58 0l148-67.5c17.52-8 17.52-21.1-.08-29.09zM160 308.52l-82.7 37.11c-17.6 8-17.6 21.1 0 29.1l148 67.5c16.89 7.69 44.69 7.69 61.58 0l148-67.5c17.6-8 17.6-21.1 0-29.1l-79.94-38.47" class="colorStrokecurrentColor svgStroke" data-darkreader-inline-stroke="" style="--darkreader-inline-stroke:#e8e6e3;"/>
      <path fill="none" stroke="#ffffff" stroke-linecap="round" stroke-linejoin="round" stroke-width="32" d="M160 204.48l-82.8 37.16c-17.6 8-17.6 21.1 0 29.1l148 67.49c16.89 7.7 44.69 7.7 61.58 0l148-67.49c17.7-8 17.7-21.1.1-29.1L352 204.48" class="colorStrokecurrentColor svgStroke" data-darkreader-inline-stroke="" style="--darkreader-inline-stroke:#e8e6e3;"/>
    </svg>
  </g>
</svg>